<svg width="56" height="36" viewBox="0 0 56 36" fill="none" xmlns="http://www.w3.org/2000/svg">
<g clip-path="url(#clip0_1_272)">
<path opacity="0.07" d="M51.5789 0H4.42105C1.91579 0 0 1.95 0 4.5V31.5C0 34.05 2.06316 36 4.42105 36H51.5789C54.0842 36 56 34.05 56 31.5V4.5C56 1.95 53.9368 0 51.5789 0Z" fill="black"/>
<path d="M51.579 1.5C53.2 1.5 54.5263 2.85 54.5263 4.5V31.5C54.5263 33.15 53.2 34.5 51.579 34.5H4.42106C2.80001 34.5 1.47369 33.15 1.47369 31.5V4.5C1.47369 2.85 2.80001 1.5 4.42106 1.5H51.579Z" fill="#006FCF"/>
<path d="M13.2204 15.402L14.361 18.216H12.0886L13.2204 15.402ZM36.9099 15.519H32.5227V16.7595H36.8391V18.618H32.5316V20.001H36.9187V21.1095L39.9796 17.742L36.9187 14.232L36.9099 15.519ZM16.1855 12.009H22.0728L23.38 14.9115L24.5913 12H39.8735L41.4621 13.785L43.1052 12H50.1244L44.9385 17.778L50.0714 23.52H42.9476L41.3589 21.735L39.701 23.52H14.781L14.053 21.735H12.3878L11.6583 23.52H5.89471L10.7372 12H15.792L16.1855 12.009ZM28.952 13.626H25.6524L23.4419 18.93L21.0471 13.626H17.7726V20.841L14.7368 13.626H11.7998L8.28945 21.894H10.581L11.309 20.109H15.1347L15.8627 21.894H19.8711V15.9915L22.4516 21.903H24.2052L26.7695 16.0095V21.9045H28.9181L28.9535 13.6245L28.952 13.626ZM42.7162 17.778L46.4461 13.626H43.761L41.4017 16.215L39.1204 13.626H30.4345V21.903H38.9966L41.3751 19.296L43.6564 21.903H46.4196L42.7162 17.778Z" fill="white"/>
</g>
<defs>
<clipPath id="clip0_1_272">
<rect width="56" height="36" fill="white"/>
</clipPath>
</defs>
</svg>
