<svg width="56" height="36" viewBox="0 0 56 36" fill="none" xmlns="http://www.w3.org/2000/svg">
<g clip-path="url(#clip0_1_268)">
<path opacity="0.07" d="M51.5789 0H4.42105C1.91579 0 0 1.95 0 4.5V31.5C0 34.05 2.06316 36 4.42105 36H51.5789C54.0842 36 56 34.05 56 31.5V4.5C56 1.95 53.9368 0 51.5789 0Z" fill="black"/>
<path d="M51.579 1.5C53.2 1.5 54.5263 2.85 54.5263 4.5V31.5C54.5263 33.15 53.2 34.5 51.579 34.5H4.42106C2.80001 34.5 1.47369 33.15 1.47369 31.5V4.5C1.47369 2.85 2.80001 1.5 4.42106 1.5H51.579Z" fill="white"/>
<path d="M41.7052 15.15H41.2631C40.6737 16.65 40.2316 17.4 39.7895 19.65H42.5895C42.1474 17.4 42.1474 16.35 41.7052 15.15ZM45.9789 24H43.4737C43.3263 24 43.3263 24 43.1789 23.85L42.8842 22.5L42.7368 22.2H39.2C39.0526 22.2 38.9052 22.2 38.9052 22.5L38.4631 23.85C38.4631 24 38.3158 24 38.3158 24H35.221L35.5158 23.25L39.7895 13.05C39.7895 12.3 40.2316 12 40.9684 12H43.1789C43.3263 12 43.4737 12 43.4737 12.3L45.5368 22.05C45.6842 22.65 45.8316 23.1 45.8316 23.7C45.9789 23.85 45.9789 23.85 45.9789 24ZM26.2316 23.55L26.821 20.85C26.9684 20.85 27.1158 21 27.1158 21C28.1474 21.45 29.1789 21.75 30.2105 21.6C30.5053 21.6 30.9474 21.45 31.2421 21.3C31.9789 21 31.9789 20.25 31.3895 19.65C31.0947 19.35 30.6526 19.2 30.2105 18.9C29.621 18.6 29.0316 18.3 28.5895 17.85C26.821 16.35 27.4105 14.25 28.4421 13.2C29.3263 12.6 29.7684 12 30.9474 12C32.7158 12 34.6316 12 35.5158 12.3H35.6631C35.5158 13.2 35.3684 13.95 35.0737 14.85C34.3368 14.55 33.6 14.25 32.8631 14.25C32.421 14.25 31.9789 14.25 31.5368 14.4C31.2421 14.4 31.0947 14.55 30.9474 14.7C30.6526 15 30.6526 15.45 30.9474 15.75L31.6842 16.35C32.2737 16.65 32.8631 16.95 33.3053 17.25C34.0421 17.7 34.7789 18.45 34.9263 19.35C35.221 20.7 34.7789 21.9 33.6 22.8C32.8631 23.4 32.5684 23.7 31.5368 23.7C29.4737 23.7 27.8526 23.85 26.5263 23.4C26.3789 23.7 26.3789 23.7 26.2316 23.55ZM21.0737 24C21.221 22.95 21.221 22.95 21.3684 22.5C22.1053 19.2 22.8421 15.75 23.4316 12.45C23.5789 12.15 23.5789 12 23.8737 12H26.5263C26.2316 13.8 25.9368 15.15 25.4947 16.8C25.0526 19.05 24.6105 21.3 24.021 23.55C24.021 23.85 23.8737 23.85 23.5789 23.85M7.36841 12.3C7.36841 12.15 7.66315 12 7.81051 12H12.821C13.5579 12 14.1474 12.45 14.2947 13.2L15.621 19.8C15.621 19.95 15.621 19.95 15.7684 20.1C15.7684 19.95 15.9158 19.95 15.9158 19.95L19.0105 12.3C18.8631 12.15 19.0105 12 19.1579 12H22.2526C22.2526 12.15 22.2526 12.15 22.1053 12.3L17.5368 23.25C17.3895 23.55 17.3895 23.7 17.2421 23.85C17.0947 24 16.8 23.85 16.5052 23.85H14.2947C14.1474 23.85 14 23.85 14 23.55L11.6421 14.25C11.3474 13.95 10.9053 13.5 10.3158 13.35C9.43157 12.9 7.81051 12.6 7.51578 12.6L7.36841 12.3Z" fill="#142688"/>
</g>
<defs>
<clipPath id="clip0_1_268">
<rect width="56" height="36" fill="white"/>
</clipPath>
</defs>
</svg>
