<svg width="56" height="36" viewBox="0 0 56 36" fill="none" xmlns="http://www.w3.org/2000/svg">
<g clip-path="url(#clip0_1_256)">
<path opacity="0.07" d="M51.5789 0H4.42105C1.91579 0 0 1.95 0 4.5V31.5C0 34.05 2.06316 36 4.42105 36H51.5789C54.0842 36 56 34.05 56 31.5V4.5C56 1.95 53.9368 0 51.5789 0Z" fill="black"/>
<path d="M51.579 1.5C53.2 1.5 54.5263 2.85 54.5263 4.5V31.5C54.5263 33.15 53.2 34.5 51.579 34.5H4.42106C2.80001 34.5 1.47369 33.15 1.47369 31.5V4.5C1.47369 2.85 2.80001 1.5 4.42106 1.5H51.579Z" fill="white"/>
<path d="M22.1052 28.5C27.8025 28.5 32.421 23.799 32.421 18C32.421 12.201 27.8025 7.5 22.1052 7.5C16.408 7.5 11.7895 12.201 11.7895 18C11.7895 23.799 16.408 28.5 22.1052 28.5Z" fill="#EB001B"/>
<path d="M33.8947 28.5C39.592 28.5 44.2105 23.799 44.2105 18C44.2105 12.201 39.592 7.5 33.8947 7.5C28.1975 7.5 23.5789 12.201 23.5789 18C23.5789 23.799 28.1975 28.5 33.8947 28.5Z" fill="#F79E1B"/>
<path d="M32.4211 18C32.4211 14.4 30.6526 11.25 28 9.44995C25.3474 11.4 23.5789 14.55 23.5789 18C23.5789 21.45 25.3474 24.75 28 26.55C30.6526 24.75 32.4211 21.6 32.4211 18Z" fill="#FF5F00"/>
</g>
<defs>
<clipPath id="clip0_1_256">
<rect width="56" height="36" fill="white"/>
</clipPath>
</defs>
</svg>
