<svg width="56" height="36" viewBox="0 0 56 36" fill="none" xmlns="http://www.w3.org/2000/svg">
<g clip-path="url(#clip0_1_262)">
<path opacity="0.07" d="M51.5789 0H4.42105C1.91579 0 0 1.95 0 4.5V31.5C0 34.05 2.06316 36 4.42105 36H51.5789C54.0842 36 56 34.05 56 31.5V4.5C56 1.95 53.9368 0 51.5789 0Z" fill="black"/>
<path d="M51.579 1.5C53.2 1.5 54.5263 2.85 54.5263 4.5V31.5C54.5263 33.15 53.2 34.5 51.579 34.5H4.42106C2.80001 34.5 1.47369 33.15 1.47369 31.5V4.5C1.47369 2.85 2.80001 1.5 4.42106 1.5H51.579Z" fill="white"/>
<path d="M35.2211 12.45C35.5158 10.95 35.2211 9.9 34.3369 9C33.4526 7.95 31.8316 7.5 29.7684 7.5H23.7263C23.2842 7.5 22.9895 7.8 22.8421 8.25L20.6316 23.4C20.6316 23.7 20.779 24 21.0737 24H25.0526L25.6421 18.9L28.2948 15.6L35.2211 12.45Z" fill="#003087"/>
<path d="M35.2211 12.45L34.9263 12.75C34.1895 16.95 31.6842 18.45 28.1474 18.45H26.5263C26.0842 18.45 25.7895 18.75 25.6421 19.2L24.7579 25.05L24.4632 26.55C24.4632 26.85 24.6105 27.15 24.9053 27.15H28C28.4421 27.15 28.7368 26.85 28.7368 26.55V26.4L29.3263 22.8V22.65C29.3263 22.35 29.7684 22.05 30.0632 22.05H30.5053C33.6 22.05 35.9579 20.85 36.5474 17.25C36.8421 15.75 36.6947 14.55 35.9579 13.65C35.8105 12.9 35.5158 12.6 35.2211 12.45Z" fill="#3086C8"/>
<path d="M34.3368 12.15C34.1895 12 34.0421 12 33.8947 12C33.7474 12 33.6 12 33.4526 11.85C33.0105 11.7 32.421 11.7 31.8316 11.7H27.4105C27.2631 11.7 27.1158 11.7 27.1158 11.85C26.821 12 26.6737 12.15 26.6737 12.45L25.6421 19.05V19.2C25.6421 18.75 26.0842 18.45 26.5263 18.45H28.4421C32.1263 18.45 34.4842 16.95 35.221 12.75V12.45C35.0737 12.3 34.7789 12.15 34.4842 12.15H34.3368Z" fill="#012169"/>
</g>
<defs>
<clipPath id="clip0_1_262">
<rect width="56" height="36" fill="white"/>
</clipPath>
</defs>
</svg>
